<mxfile host="app.diagrams.net" modified="2023-02-16T10:00:07.970Z" agent="5.0 (Windows NT 10.0; Win64; x64) AppleWebKit/537.36 (KHTML, like Gecko) Chrome/109.0.0.0 Safari/537.36" etag="q3uPB2pqo5VjTLAxNYnl" version="20.8.20" type="github">
  <diagram id="C5RBs43oDa-KdzZeNtuy" name="Page-1">
    <mxGraphModel dx="1050" dy="549" grid="1" gridSize="10" guides="1" tooltips="1" connect="1" arrows="1" fold="1" page="1" pageScale="1" pageWidth="827" pageHeight="1169" math="0" shadow="0">
      <root>
        <mxCell id="WIyWlLk6GJQsqaUBKTNV-0" />
        <mxCell id="WIyWlLk6GJQsqaUBKTNV-1" parent="WIyWlLk6GJQsqaUBKTNV-0" />
        <mxCell id="hFSLJ1k4jr6HjBhOkPKp-3" value="" style="edgeStyle=orthogonalEdgeStyle;rounded=0;orthogonalLoop=1;jettySize=auto;html=1;" edge="1" parent="WIyWlLk6GJQsqaUBKTNV-1" source="hFSLJ1k4jr6HjBhOkPKp-0" target="hFSLJ1k4jr6HjBhOkPKp-2">
          <mxGeometry relative="1" as="geometry" />
        </mxCell>
        <mxCell id="hFSLJ1k4jr6HjBhOkPKp-0" value="START" style="ellipse;whiteSpace=wrap;html=1;" vertex="1" parent="WIyWlLk6GJQsqaUBKTNV-1">
          <mxGeometry x="340" y="30" width="120" height="80" as="geometry" />
        </mxCell>
        <mxCell id="hFSLJ1k4jr6HjBhOkPKp-1" value="STOP" style="ellipse;whiteSpace=wrap;html=1;" vertex="1" parent="WIyWlLk6GJQsqaUBKTNV-1">
          <mxGeometry x="340" y="450" width="120" height="80" as="geometry" />
        </mxCell>
        <mxCell id="hFSLJ1k4jr6HjBhOkPKp-5" value="" style="edgeStyle=orthogonalEdgeStyle;rounded=0;orthogonalLoop=1;jettySize=auto;html=1;" edge="1" parent="WIyWlLk6GJQsqaUBKTNV-1" source="hFSLJ1k4jr6HjBhOkPKp-2" target="hFSLJ1k4jr6HjBhOkPKp-4">
          <mxGeometry relative="1" as="geometry" />
        </mxCell>
        <mxCell id="hFSLJ1k4jr6HjBhOkPKp-2" value="Podaj wartość a&lt;br&gt;i = 0&lt;br&gt;wynik = []" style="rounded=0;whiteSpace=wrap;html=1;" vertex="1" parent="WIyWlLk6GJQsqaUBKTNV-1">
          <mxGeometry x="340" y="140" width="120" height="60" as="geometry" />
        </mxCell>
        <mxCell id="hFSLJ1k4jr6HjBhOkPKp-7" value="NIE" style="edgeStyle=orthogonalEdgeStyle;rounded=0;orthogonalLoop=1;jettySize=auto;html=1;" edge="1" parent="WIyWlLk6GJQsqaUBKTNV-1" source="hFSLJ1k4jr6HjBhOkPKp-4" target="hFSLJ1k4jr6HjBhOkPKp-6">
          <mxGeometry relative="1" as="geometry" />
        </mxCell>
        <mxCell id="hFSLJ1k4jr6HjBhOkPKp-10" value="TAK" style="edgeStyle=orthogonalEdgeStyle;rounded=0;orthogonalLoop=1;jettySize=auto;html=1;" edge="1" parent="WIyWlLk6GJQsqaUBKTNV-1" source="hFSLJ1k4jr6HjBhOkPKp-4" target="hFSLJ1k4jr6HjBhOkPKp-9">
          <mxGeometry relative="1" as="geometry">
            <Array as="points">
              <mxPoint x="320" y="280" />
              <mxPoint x="320" y="390" />
            </Array>
          </mxGeometry>
        </mxCell>
        <mxCell id="hFSLJ1k4jr6HjBhOkPKp-4" value="i &amp;lt; a.dlugosc" style="rhombus;whiteSpace=wrap;html=1;" vertex="1" parent="WIyWlLk6GJQsqaUBKTNV-1">
          <mxGeometry x="360" y="240" width="80" height="80" as="geometry" />
        </mxCell>
        <mxCell id="hFSLJ1k4jr6HjBhOkPKp-8" value="" style="edgeStyle=orthogonalEdgeStyle;rounded=0;orthogonalLoop=1;jettySize=auto;html=1;" edge="1" parent="WIyWlLk6GJQsqaUBKTNV-1" source="hFSLJ1k4jr6HjBhOkPKp-6" target="hFSLJ1k4jr6HjBhOkPKp-1">
          <mxGeometry relative="1" as="geometry" />
        </mxCell>
        <mxCell id="hFSLJ1k4jr6HjBhOkPKp-6" value="Wyswietl wynik" style="rounded=0;whiteSpace=wrap;html=1;" vertex="1" parent="WIyWlLk6GJQsqaUBKTNV-1">
          <mxGeometry x="340" y="350" width="120" height="60" as="geometry" />
        </mxCell>
        <mxCell id="hFSLJ1k4jr6HjBhOkPKp-12" value="NIE" style="edgeStyle=orthogonalEdgeStyle;rounded=0;orthogonalLoop=1;jettySize=auto;html=1;" edge="1" parent="WIyWlLk6GJQsqaUBKTNV-1" source="hFSLJ1k4jr6HjBhOkPKp-9" target="hFSLJ1k4jr6HjBhOkPKp-11">
          <mxGeometry relative="1" as="geometry" />
        </mxCell>
        <mxCell id="hFSLJ1k4jr6HjBhOkPKp-14" value="TAK" style="edgeStyle=orthogonalEdgeStyle;rounded=0;orthogonalLoop=1;jettySize=auto;html=1;" edge="1" parent="WIyWlLk6GJQsqaUBKTNV-1" source="hFSLJ1k4jr6HjBhOkPKp-9" target="hFSLJ1k4jr6HjBhOkPKp-13">
          <mxGeometry relative="1" as="geometry" />
        </mxCell>
        <mxCell id="hFSLJ1k4jr6HjBhOkPKp-9" value="a[i] istnije w wynik?" style="rhombus;whiteSpace=wrap;html=1;" vertex="1" parent="WIyWlLk6GJQsqaUBKTNV-1">
          <mxGeometry x="170" y="350" width="80" height="80" as="geometry" />
        </mxCell>
        <mxCell id="hFSLJ1k4jr6HjBhOkPKp-19" style="edgeStyle=orthogonalEdgeStyle;rounded=0;orthogonalLoop=1;jettySize=auto;html=1;exitX=0.5;exitY=0;exitDx=0;exitDy=0;entryX=0;entryY=0.5;entryDx=0;entryDy=0;" edge="1" parent="WIyWlLk6GJQsqaUBKTNV-1" source="hFSLJ1k4jr6HjBhOkPKp-11" target="hFSLJ1k4jr6HjBhOkPKp-17">
          <mxGeometry relative="1" as="geometry" />
        </mxCell>
        <mxCell id="hFSLJ1k4jr6HjBhOkPKp-11" value="wynik[a[i]] = 1" style="whiteSpace=wrap;html=1;" vertex="1" parent="WIyWlLk6GJQsqaUBKTNV-1">
          <mxGeometry x="10" y="240" width="120" height="60" as="geometry" />
        </mxCell>
        <mxCell id="hFSLJ1k4jr6HjBhOkPKp-18" value="" style="edgeStyle=orthogonalEdgeStyle;rounded=0;orthogonalLoop=1;jettySize=auto;html=1;" edge="1" parent="WIyWlLk6GJQsqaUBKTNV-1" source="hFSLJ1k4jr6HjBhOkPKp-13" target="hFSLJ1k4jr6HjBhOkPKp-17">
          <mxGeometry relative="1" as="geometry" />
        </mxCell>
        <mxCell id="hFSLJ1k4jr6HjBhOkPKp-13" value="wynik[a[i]] = wynik[a[i]] + 1" style="whiteSpace=wrap;html=1;" vertex="1" parent="WIyWlLk6GJQsqaUBKTNV-1">
          <mxGeometry x="150" y="240" width="120" height="60" as="geometry" />
        </mxCell>
        <mxCell id="hFSLJ1k4jr6HjBhOkPKp-20" style="edgeStyle=orthogonalEdgeStyle;rounded=0;orthogonalLoop=1;jettySize=auto;html=1;exitX=1;exitY=0.5;exitDx=0;exitDy=0;entryX=0.5;entryY=0;entryDx=0;entryDy=0;" edge="1" parent="WIyWlLk6GJQsqaUBKTNV-1" source="hFSLJ1k4jr6HjBhOkPKp-17" target="hFSLJ1k4jr6HjBhOkPKp-4">
          <mxGeometry relative="1" as="geometry">
            <Array as="points">
              <mxPoint x="320" y="130" />
              <mxPoint x="320" y="240" />
            </Array>
          </mxGeometry>
        </mxCell>
        <mxCell id="hFSLJ1k4jr6HjBhOkPKp-17" value="i = i+1" style="whiteSpace=wrap;html=1;" vertex="1" parent="WIyWlLk6GJQsqaUBKTNV-1">
          <mxGeometry x="150" y="100" width="120" height="60" as="geometry" />
        </mxCell>
      </root>
    </mxGraphModel>
  </diagram>
</mxfile>
